<svg width="48" height="49" viewBox="0 0 48 49" fill="none" xmlns="http://www.w3.org/2000/svg">
<rect y="0.79834" width="48" height="48" rx="24" fill="white"/>
<path fill-rule="evenodd" clip-rule="evenodd" d="M21.4362 29.9266C25.6846 29.9266 29.1285 26.4826 29.1285 22.2343C29.1285 17.986 25.6846 14.542 21.4362 14.542C17.1879 14.542 13.7439 17.986 13.7439 22.2343C13.7439 26.4826 17.1879 29.9266 21.4362 29.9266ZM30.1542 22.2343C30.1542 27.0491 26.251 30.9523 21.4362 30.9523C16.6214 30.9523 12.7183 27.0491 12.7183 22.2343C12.7183 17.4195 16.6214 13.5164 21.4362 13.5164C26.251 13.5164 30.1542 17.4195 30.1542 22.2343Z" fill="#222222"/>
<path fill-rule="evenodd" clip-rule="evenodd" d="M34.9197 36.4431L26.7146 28.2379L27.4399 27.5127L35.645 35.7178L34.9197 36.4431Z" fill="#222222"/>
</svg>
