<svg width="288" height="57" viewBox="0 0 288 57" fill="none" xmlns="http://www.w3.org/2000/svg">
<rect x="0.5" y="0.584473" width="287" height="55" fill="#222222"/>
<rect x="0.5" y="0.584473" width="287" height="55" stroke="#222222"/>
<g clip-path="url(#clip0_1304_136421)">
<path fill-rule="evenodd" clip-rule="evenodd" d="M76 20.0845L81 20.0845L83.4 23.2845C83.7777 23.7881 84.3705 24.0845 85 24.0845H88.5V37.0845H68.5V24.0845H72C72.6295 24.0845 73.2223 23.7881 73.6 23.2845L76 20.0845ZM81.8 19.4845C81.6111 19.2327 81.3148 19.0845 81 19.0845H76C75.6852 19.0845 75.3889 19.2327 75.2 19.4845L72.8 22.6845C72.6111 22.9363 72.3148 23.0845 72 23.0845H68.5C67.9477 23.0845 67.5 23.5322 67.5 24.0845V37.0845C67.5 37.6368 67.9477 38.0845 68.5 38.0845H88.5C89.0523 38.0845 89.5 37.6368 89.5 37.0845V24.0845C89.5 23.5322 89.0523 23.0845 88.5 23.0845H85C84.6852 23.0845 84.3889 22.9363 84.2 22.6845L81.8 19.4845ZM82.5 30.0845C82.5 32.2936 80.7091 34.0845 78.5 34.0845C76.2909 34.0845 74.5 32.2936 74.5 30.0845C74.5 27.8753 76.2909 26.0845 78.5 26.0845C80.7091 26.0845 82.5 27.8753 82.5 30.0845ZM83.5 30.0845C83.5 32.8459 81.2614 35.0845 78.5 35.0845C75.7386 35.0845 73.5 32.8459 73.5 30.0845C73.5 27.323 75.7386 25.0845 78.5 25.0845C81.2614 25.0845 83.5 27.323 83.5 30.0845Z" fill="#FBF6F4"/>
</g>
<path d="M103.151 32.2805C101.233 32.2805 99.8466 31.4965 99.1326 30.0125L100.505 29.2425C101.037 30.3065 101.933 30.8385 103.151 30.8385C104.299 30.8385 105.069 30.2785 105.069 29.4105C105.069 28.5845 104.397 28.2485 103.053 27.8985C100.771 27.3105 99.5806 26.5545 99.5806 24.9025C99.5806 23.0545 101.177 22.0885 103.081 22.0885C104.509 22.0885 105.951 22.7605 106.469 24.3005L105.041 24.8465C104.747 24.0065 103.977 23.5305 102.983 23.5305C101.905 23.5305 101.247 24.0065 101.247 24.8045C101.247 25.6165 101.975 25.9665 103.305 26.3165C105.531 26.8905 106.721 27.6465 106.721 29.2985C106.721 31.0205 105.209 32.2805 103.151 32.2805ZM108.515 32.0845V24.8465H110.111V25.8405C110.601 25.0845 111.315 24.6645 112.365 24.6645C114.101 24.6645 115.207 25.8405 115.207 27.5485V32.0845H113.611V27.9405C113.611 26.7645 113.009 26.0505 111.959 26.0505C110.881 26.0505 110.111 26.8485 110.111 28.0385V32.0845H108.515ZM122.047 32.0845L121.865 31.0905C121.375 31.8185 120.493 32.2805 119.429 32.2805C118.057 32.2805 117.007 31.4825 117.007 30.1945C117.007 28.5005 118.365 27.8285 121.739 27.8145C121.725 26.6945 121.137 26.0505 119.975 26.0505C119.233 26.0505 118.659 26.3445 118.351 26.9465L117.161 26.2045C117.567 25.1965 118.659 24.6645 120.073 24.6645C122.173 24.6645 123.335 25.8405 123.335 27.6745V32.0845H122.047ZM118.659 30.0825C118.659 30.6705 119.093 31.0625 119.807 31.0625C120.815 31.0625 121.585 30.4885 121.739 29.5925V28.8785C119.625 28.8925 118.659 29.1445 118.659 30.0825ZM125.591 34.8845V24.8465H127.187V25.9805C127.677 25.1405 128.573 24.6645 129.553 24.6645C131.583 24.6645 132.857 26.3165 132.857 28.4165C132.857 30.6145 131.541 32.2805 129.525 32.2805C128.503 32.2805 127.649 31.7905 127.187 31.0065V34.8845H125.591ZM129.189 30.8945C130.421 30.8945 131.205 29.8305 131.205 28.4585C131.205 27.1145 130.435 26.0505 129.189 26.0505C127.943 26.0505 127.159 27.1145 127.159 28.4585C127.159 29.8445 127.943 30.8945 129.189 30.8945ZM138.421 22.5505H140.017V24.8465H142.453V26.1905H140.017V29.7185C140.017 30.5585 140.479 30.8805 141.081 30.8805C141.487 30.8805 141.823 30.8105 142.215 30.6285L142.481 31.8885C141.991 32.1265 141.361 32.2525 140.773 32.2525C139.359 32.2525 138.421 31.4965 138.421 29.8585V26.2185L137.399 26.1765V25.0005L138.421 24.8465V22.5505ZM147.351 32.2805C145.027 32.2805 143.627 30.5585 143.627 28.4725C143.627 26.3865 145.027 24.6645 147.365 24.6645C149.689 24.6645 151.075 26.3865 151.075 28.4585C151.075 30.5445 149.675 32.2805 147.351 32.2805ZM147.351 30.8945C148.639 30.8945 149.423 29.8165 149.423 28.4585C149.423 27.1285 148.653 26.0505 147.351 26.0505C146.063 26.0505 145.293 27.1285 145.293 28.4585C145.293 29.8025 146.049 30.8945 147.351 30.8945ZM156.745 29.9145C157.165 30.5305 157.837 30.9785 158.761 30.9785C159.517 30.9785 160.007 30.6285 160.007 30.0825C160.007 29.5645 159.643 29.3545 158.789 29.1165L158.285 28.9625C156.899 28.5565 156.129 27.9685 156.129 26.8065C156.129 25.5045 157.291 24.6645 158.817 24.6645C160.021 24.6645 160.959 25.1965 161.365 26.0785L160.231 26.7225C159.993 26.2325 159.503 25.9385 158.859 25.9385C158.145 25.9385 157.697 26.2745 157.697 26.7645C157.697 27.2825 158.089 27.4645 158.929 27.7025L159.419 27.8425C160.959 28.2905 161.575 28.8925 161.575 30.0545C161.575 31.3985 160.497 32.2805 158.817 32.2805C157.347 32.2805 156.283 31.6925 155.737 30.7825L156.745 29.9145ZM163.421 32.0845V21.8645H165.017V25.8405C165.507 25.0845 166.221 24.6645 167.271 24.6645C169.007 24.6645 170.113 25.8405 170.113 27.5485V32.0845H168.517V27.9405C168.517 26.7645 167.915 26.0505 166.865 26.0505C165.787 26.0505 165.017 26.8485 165.017 28.0385V32.0845H163.421ZM175.68 32.2805C173.356 32.2805 171.956 30.5585 171.956 28.4725C171.956 26.3865 173.356 24.6645 175.694 24.6645C178.018 24.6645 179.404 26.3865 179.404 28.4585C179.404 30.5445 178.004 32.2805 175.68 32.2805ZM175.68 30.8945C176.968 30.8945 177.752 29.8165 177.752 28.4585C177.752 27.1285 176.982 26.0505 175.68 26.0505C174.392 26.0505 173.622 27.1285 173.622 28.4585C173.622 29.8025 174.378 30.8945 175.68 30.8945ZM181.29 34.8845V24.8465H182.886V25.9805C183.376 25.1405 184.272 24.6645 185.252 24.6645C187.282 24.6645 188.556 26.3165 188.556 28.4165C188.556 30.6145 187.24 32.2805 185.224 32.2805C184.202 32.2805 183.348 31.7905 182.886 31.0065V34.8845H181.29ZM184.888 30.8945C186.12 30.8945 186.904 29.8305 186.904 28.4585C186.904 27.1145 186.134 26.0505 184.888 26.0505C183.642 26.0505 182.858 27.1145 182.858 28.4585C182.858 29.8445 183.642 30.8945 184.888 30.8945Z" fill="#FBF6F4"/>
<g clip-path="url(#clip1_1304_136421)">
<path fill-rule="evenodd" clip-rule="evenodd" d="M211.406 19.0845L220.5 27.5845L211.416 37.0845L210.729 36.3332L218.553 28.0845H198.5V27.0845H218.497L210.74 19.8573L211.406 19.0845Z" fill="#FBF6F4"/>
</g>
<defs>
<clipPath id="clip0_1304_136421">
<rect width="24" height="24" fill="white" transform="translate(66.5 16.0845)"/>
</clipPath>
<clipPath id="clip1_1304_136421">
<rect width="24" height="24" fill="white" transform="translate(197.5 16.0845)"/>
</clipPath>
</defs>
</svg>
