<svg width="58" height="22" viewBox="0 0 58 22" fill="none" xmlns="http://www.w3.org/2000/svg">
<path d="M19.2841 20.786H17.7295V4.09999L10.3908 17.168H9.36739L2.06102 4.09999V20.78H0.5V1.29199H1.97034L9.87909 15.092L17.8137 1.29199H19.2841V20.786Z" fill="#222222"/>
<path d="M36.2482 17.4437C34.8297 19.6997 33.2104 21.1757 30.2308 21.1757C26.5647 21.1757 24.1616 19.2317 24.1616 16.0517C24.1616 13.6037 25.8716 11.7677 28.9418 10.0937C27.057 8.39575 26.1437 7.27975 26.1437 5.44375C26.1437 2.74375 28.0868 1.09975 30.6259 1.09975C31.2291 1.07805 31.8307 1.17162 32.3932 1.37462C32.9557 1.57762 33.467 1.8857 33.8954 2.27969C34.3237 2.67368 34.66 3.14514 34.8831 3.66471C35.1063 4.18429 35.2115 4.74085 35.1924 5.29975C35.1924 7.74775 33.2104 9.13975 31.2218 10.3697L36.0345 15.2417L38.6254 11.2037L39.7654 11.8997L36.9996 16.2197L40.5426 19.8197L39.4609 20.7917L36.2482 17.4437ZM35.2831 16.4417L29.9329 11.0957C27.1088 12.6317 25.7226 14.0957 25.7226 16.0277C25.7226 18.4277 27.4391 19.8677 30.1725 19.8677C32.5497 19.8677 33.9034 18.4997 35.2831 16.4417ZM30.2308 9.45175C32.0639 8.39575 33.6573 7.19575 33.6573 5.30575C33.6865 4.92792 33.6298 4.54861 33.4907 4.19238C33.3517 3.83615 33.1335 3.51092 32.8502 3.23775C32.5669 2.96458 32.2248 2.74955 31.8461 2.60657C31.4674 2.4636 31.0606 2.39586 30.6518 2.40775C28.9418 2.40775 27.7047 3.49975 27.7047 5.32975C27.7047 6.80575 28.5208 7.78375 30.2308 9.45175Z" fill="#222222"/>
<path d="M57.5001 15.6621C57.5001 18.8421 54.527 21.1761 50.4334 21.1761C46.6183 21.1761 43.9561 19.7601 42.4404 16.9161L43.7359 16.2201C45.0313 18.6741 47.253 19.8681 50.5305 19.8681C53.808 19.8681 56.088 18.1701 56.088 15.6681C56.088 13.1661 53.264 12.3501 50.3751 11.5701C47.0393 10.6521 43.6452 9.7341 43.6452 6.2781C43.6128 2.1861 47.7842 1.1001 50.1937 1.1001C52.2665 1.1001 55.8484 1.6581 57.228 5.3001L55.8484 5.7441C55.0322 3.6621 52.966 2.4081 50.252 2.4081C47.0976 2.4081 45.0702 3.8841 45.0702 6.2781C45.0702 8.6721 47.8036 9.4521 50.6601 10.2081C54.0412 11.0961 57.5001 12.0141 57.5001 15.6621Z" fill="#222222"/>
</svg>
